<?xml version="1.0" encoding="UTF-8"?>
<svg id="_레이어_1" data-name="레이어 1" xmlns="http://www.w3.org/2000/svg" viewBox="0 0 196.8 56.45">
  <defs>
    <style>
      .cls-1 {
        fill: #4c4c4e;
        stroke-width: 0px;
      }
    </style>
  </defs>
  <path class="cls-1" d="M167.18,25.82c-.06,5.44-.02,13.31-1.64,18.56-2.99,9.72-13.6,14.04-22.25,9.04-3.79-2.19-5.68-5.75-6.68-9.78-1.74-7.04-1.98-13.13-1.22-20.34.43-4.02,3.12-6.39,6.66-6.19,3.49.19,5.43,2.66,5.57,6.47.18,4.94.31,9.89.56,14.82.22,4.14,1.42,6.12,3.06,6.12,2.3,0,3.19-2.29,3.42-6.23.19-3.34.11-8.97.15-12.32.02-1.29.15-2.59.42-3.85.69-3.17,2.71-5.66,6.24-5.35,5.16.45,5.65,4.48,5.71,9.04"/>
  <path class="cls-1" d="M114.63,46.54c.06-5.4.27-13.21-1.24-18.38-3.03-10.34-16.56-14.05-25.32-8.63-3.72,2.3-5.51,5.92-6.39,9.97-1.54,7.08-1.59,13.18-.62,20.36.55,4.01,3.3,6.29,6.84,5.99,3.48-.3,5.35-2.82,5.38-6.63.03-4.94.01-9.89.12-14.84.09-4.14,2.24-6.12,3.88-6.17,2.3-.08,4.85,2.37,5,6.27.12,3.31-.09,8.9-.12,12.23-.01,1.28.09,2.57.34,3.81.62,3.13,2.61,5.55,6.17,5.14,5.22-.59,5.79-4.61,5.96-9.13"/>
  <path class="cls-1" d="M54.84,41.11c-.13,2.96,3.19,5.33,8.18,5.12,5.13-.22,9.11-3.84,11.63-.66,2.03,2.56.63,5.74-2.98,8.12-6.48,4.28-19.34,3.46-24.64-4.39-1.99-2.95-3-6.97-3.01-10.42-.05-13.99,8.74-21.67,18.55-21.98,9.28-.3,14.73,5.86,14.8,11.94.11,9.95-10.23,12.13-22.54,12.25M55.3,33.04c2.84.43,9.31-.76,11.07-2.28.95-.82,1.67-2.13.8-3.22-.61-.77-2.34-1.14-3.35-1.1-4.89.21-7.94,2.86-8.52,6.6"/>
  <path class="cls-1" d="M118.13,23.14c.06-3.49,2.4-6.51,5.63-6.84,4.01-.41,7.32,2.22,7.32,7.79,0,7.12-.8,23.87-.84,25.64-.07,3.26-1.8,5.73-4.3,6.07-3.47.48-5.33-1.44-6.28-2.78-.89-1.27-.94-3.16-.82-5.42.11-2.27.06-5.41.03-10.25-.04-5.79-.77-12.83-.74-14.22"/>
  <path class="cls-1" d="M196.8,44.51c-.17,6.11-4.42,11.19-12.73,11.84-2.98.24-7.15.15-10.42-1.7-3.28-1.85-4.55-4.07-3.81-6.85.74-2.78,3.41-4.3,5.44-3.84,2.03.46,3.62.97,5.45,1.38,2.66.6,4.1-2.12,1.72-3.66-2.52-1.62-5.21-3.01-7.59-4.8-4.16-3.14-4.83-7.92-3.51-12.25,1.32-4.33,4.22-6.85,8.95-7.75,4.73-.9,15.25,1.42,15.12,6.56-.15,6.04-7.86,4.13-11.27,4.05-1.68-.04-2.62,1.84-.8,3.08,1.7,1.15,3.6,2,5.31,3.13,3.68,2.41,8.31,4.72,8.14,10.82"/>
  <path class="cls-1" d="M40.7,38.56c-.46-2.45-2.17-4.8-7.8-5.11-2.48-.14-4.97.14-7.42.81-1.94.53-2.59,2.17-2.11,4.51.35,1.71,1.41,2.49,3.47,2.49.93,0,1.86-.05,2.82-.1h0c.6-.03,1.06.12,1.09.6-.54,2.15-2.47,4.54-6,4.42-2.87-.1-5.51-1.72-6.8-4.45-1.38-2.93-1.41-5.94-.64-9.03,1.45-5.81,7.47-8.73,12.75-4.01,2.27,2.03,4.74,1.86,6.95-.12,2.1-1.87,2.39-4.24.59-6.57-.89-1.14-1.97-2.22-3.18-3.05-6.54-4.45-18.49-4.31-24.39,3.41-4.04,5.29-5.16,11.25-4.23,17.62,1.55,10.63,10.07,18.46,22.59,15.8,8.16-1.73,13.85-9.11,12.32-17.23"/>
  <path class="cls-1" d="M42.47,5.93c-.02-.38-.29-.7-.65-.79L20.01.02c-.19-.04-.39-.02-.57.06L.48,9.27c-.34.16-.53.53-.47.91.06.37.36.66.74.7l2.92.34-1.42,9.71c-.82.1-1.51.73-1.63,1.58-.15,1.03.56,1.98,1.59,2.13,1.03.15,1.98-.56,2.13-1.59.12-.8-.29-1.55-.97-1.92l1.43-9.79,4.45.52c.65-.49,2.77-2,4.99-2.5.3-.07.61.12.68.43.07.31-.12.61-.43.68-1.95.44-3.89,1.8-4.51,2.26l-.05,2.71c0,.32.17.62.45.76.09.05.18.08.27.09.21.03.43-.02.61-.15.04-.03,3.92-2.71,10.19-3.36,6.29-.65,11.74,1.8,11.8,1.83.3.13.65.09.9-.12.25-.21.36-.55.27-.87l-1.05-3.92,8.52-2.94c.36-.12.59-.47.57-.85Z"/>
</svg>